<svg xmlns="http://www.w3.org/2000/svg" width="48" height="48" id="wordpress"><path fill="#00759D" fill-rule="evenodd" d="M0 24c0 9.499 5.52 17.709 13.526 21.598L2.078 14.232A23.917 23.917 0 0 0 0 24zm40.202-1.211c0-2.967-1.067-5.02-1.979-6.618-1.217-1.98-2.358-3.653-2.358-5.63 0-2.207 1.672-4.26 4.03-4.26.107 0 .208.013.311.02A23.909 23.909 0 0 0 24 0C15.614 0 8.239 4.302 3.947 10.817a49.81 49.81 0 0 0 1.545.028c2.51 0 6.396-.304 6.396-.304 1.293-.077 1.446 1.825.153 1.977 0 0-1.3.153-2.746.23l8.739 25.995 5.253-15.752-3.738-10.244a43.428 43.428 0 0 1-2.519-.23c-1.293-.076-1.141-2.053.153-1.976 0 0 3.963.304 6.322.304 2.51 0 6.396-.304 6.396-.304 1.294-.077 1.446 1.825.153 1.977 0 0-1.302.153-2.747.23l8.673 25.797 2.396-7.998c1.035-3.321 1.826-5.705 1.826-7.758zm4.858-10.304c.103.765.162 1.584.162 2.468 0 2.434-.456 5.172-1.826 8.597l-7.33 21.194C43.2 40.584 48 32.853 48 24c0-4.173-1.067-8.096-2.94-11.515zM24.42 26.1l-7.202 20.924c2.151.633 4.425.978 6.78.978 2.795 0 5.476-.483 7.97-1.36a2.28 2.28 0 0 1-.17-.33L24.42 26.1z"></path></svg>